<svg width="326" height="328" viewBox="0 0 326 328" fill="none" xmlns="http://www.w3.org/2000/svg">
<path d="M93.03 224.69L102.27 222.38V186.96L70.7 123.82L63 121.51V119.2H82.25C87.5887 119.2 91.8493 120.329 95.032 122.588C98.3173 124.847 100.987 128.081 103.04 132.29L125.832 177.72L149.24 126.13L137.69 121.51V119.2H166.95V121.51L154.63 126.13L127.68 185.42V222.38L136.92 224.69V227H93.03V224.69ZM195.404 229.31C188.115 229.31 181.287 227.667 174.922 224.382C172.047 222.945 169.635 221.251 167.684 219.3C166.247 221.661 164.45 223.766 162.294 225.614C160.446 226.949 159.419 227.667 159.214 227.77H155.364V198.51H161.524C163.064 203.541 165.22 208.058 167.992 212.062C174.255 220.994 182.365 225.46 192.324 225.46C198.176 225.46 202.847 223.715 206.338 220.224C209.829 216.733 211.574 212.062 211.574 206.21C211.574 202.822 210.547 199.793 208.494 197.124C206.543 194.455 204.079 192.093 201.102 190.04C198.125 187.987 193.967 185.42 188.628 182.34C181.852 178.541 176.359 175.102 172.15 172.022C167.941 168.942 164.347 165.092 161.37 160.472C158.393 155.749 156.904 150.205 156.904 143.84C156.904 138.809 158.29 134.292 161.062 130.288C163.937 126.181 168.197 122.947 173.844 120.586C179.491 118.122 186.421 116.89 194.634 116.89C200.589 116.89 206.543 118.584 212.498 121.972C214.757 123.204 217.015 124.847 219.274 126.9C221.019 124.231 222.816 122.126 224.664 120.586C226.512 119.251 227.539 118.533 227.744 118.43H231.594V147.69H225.434C224.099 142.762 222.097 138.296 219.428 134.292C216.964 130.391 213.884 127.157 210.188 124.59C206.595 122.023 202.437 120.74 197.714 120.74C193.71 120.74 190.271 122.331 187.396 125.514C184.521 128.697 183.084 132.752 183.084 137.68C183.084 141.479 184.162 144.918 186.318 147.998C188.577 150.975 191.297 153.593 194.48 155.852C197.765 158.111 202.18 160.831 207.724 164.014C214.192 167.71 219.428 170.995 223.432 173.87C227.436 176.745 230.824 180.338 233.596 184.65C236.368 188.859 237.754 193.736 237.754 199.28C237.754 204.824 236.163 209.906 232.98 214.526C229.797 219.043 225.023 222.637 218.658 225.306C212.293 227.975 204.541 229.31 195.404 229.31Z" fill="white"/>
<rect x="54.5" y="100.5" width="195" height="150" stroke="white" stroke-width="5"/>
<path d="M193.952 55.0485C203.482 64.5785 209.255 77.1624 210.321 90.5H203.306C202.259 79.0191 197.228 68.2088 189.01 59.9904C179.725 50.7052 167.131 45.4889 154 45.4889C140.869 45.4889 128.275 50.7052 118.99 59.9904C110.772 68.2088 105.741 79.0191 104.694 90.5H97.6794C98.7445 77.1624 104.518 64.5785 114.048 55.0485C124.644 44.4527 139.015 38.5 154 38.5C168.985 38.5 183.356 44.4527 193.952 55.0485Z" stroke="white" stroke-width="9"/>
</svg>
